{
 "cells": [
  {
   "cell_type": "code",
   "execution_count": 1,
   "id": "a68412b4-4d30-4274-bb46-086b37d29cdf",
   "metadata": {},
   "outputs": [
    {
     "name": "stderr",
     "output_type": "stream",
     "text": [
      "/Users/lirunhe/mamba/envs/dam/lib/python3.12/site-packages/tqdm/auto.py:21: TqdmWarning: IProgress not found. Please update jupyter and ipywidgets. See https://ipywidgets.readthedocs.io/en/stable/user_install.html\n",
      "  from .autonotebook import tqdm as notebook_tqdm\n",
      "ffmpeg version 8.0 Copyright (c) 2000-2025 the FFmpeg developers\n",
      "  built with Apple clang version 16.0.0 (clang-1600.0.26.6)\n",
      "  configuration: --prefix=/usr/local/Cellar/ffmpeg/8.0_1 --enable-shared --enable-pthreads --enable-version3 --cc=clang --host-cflags= --host-ldflags='-Wl,-ld_classic' --enable-ffplay --enable-gnutls --enable-gpl --enable-libaom --enable-libaribb24 --enable-libbluray --enable-libdav1d --enable-libharfbuzz --enable-libjxl --enable-libmp3lame --enable-libopus --enable-librav1e --enable-librist --enable-librubberband --enable-libsnappy --enable-libsrt --enable-libssh --enable-libsvtav1 --enable-libtesseract --enable-libtheora --enable-libvidstab --enable-libvmaf --enable-libvorbis --enable-libvpx --enable-libwebp --enable-libx264 --enable-libx265 --enable-libxml2 --enable-libxvid --enable-lzma --enable-libfontconfig --enable-libfreetype --enable-frei0r --enable-libass --enable-libopencore-amrnb --enable-libopencore-amrwb --enable-libopenjpeg --enable-libspeex --enable-libsoxr --enable-libzmq --enable-libzimg --disable-libjack --disable-indev=jack --enable-videotoolbox --enable-audiotoolbox\n",
      "  libavutil      60.  8.100 / 60.  8.100\n",
      "  libavcodec     62. 11.100 / 62. 11.100\n",
      "  libavformat    62.  3.100 / 62.  3.100\n",
      "  libavdevice    62.  1.100 / 62.  1.100\n",
      "  libavfilter    11.  4.100 / 11.  4.100\n",
      "  libswscale      9.  1.100 /  9.  1.100\n",
      "  libswresample   6.  1.100 /  6.  1.100\n",
      "Input #0, mov,mp4,m4a,3gp,3g2,mj2, from '/Users/lirunhe/Desktop/pandora/voice_files/voice_2025-02-24T22-08-21.094352.aac.mp4':\n",
      "  Metadata:\n",
      "    major_brand     : mp42\n",
      "    minor_version   : 0\n",
      "    compatible_brands: mp42isom\n",
      "    creation_time   : 2025-02-25T03:08:15.000000Z\n",
      "  Duration: 00:00:17.92, start: 0.000000, bitrate: 26 kb/s\n",
      "  Stream #0:0[0x1](eng): Audio: aac (LC) (mp4a / 0x6134706D), 16000 Hz, mono, fltp, 15 kb/s (default)\n",
      "    Metadata:\n",
      "      creation_time   : 2025-02-25T03:08:15.000000Z\n",
      "      vendor_id       : [0][0][0][0]\n",
      "Stream mapping:\n",
      "  Stream #0:0 -> #0:0 (aac (native) -> pcm_s16le (native))\n",
      "Press [q] to stop, [?] for help\n",
      "Output #0, wav, to '/Users/lirunhe/Desktop/pandora/voice_files/voice_2025-02-24T22-08-21.094352.aac.wav':\n",
      "  Metadata:\n",
      "    major_brand     : mp42\n",
      "    minor_version   : 0\n",
      "    compatible_brands: mp42isom\n",
      "    ISFT            : Lavf62.3.100\n",
      "  Stream #0:0(eng): Audio: pcm_s16le ([1][0][0][0] / 0x0001), 16000 Hz, mono, s16, 256 kb/s (default)\n",
      "    Metadata:\n",
      "      encoder         : Lavc62.11.100 pcm_s16le\n",
      "      creation_time   : 2025-02-25T03:08:15.000000Z\n",
      "      vendor_id       : [0][0][0][0]\n",
      "[out#0/wav @ 0x7fda8900d240] video:0KiB audio:560KiB subtitle:0KiB other streams:0KiB global headers:0KiB muxing overhead: 0.013602%\n",
      "size=     560KiB time=00:00:17.92 bitrate= 256.0kbits/s speed=1.98e+03x elapsed=0:00:00.00    \n"
     ]
    },
    {
     "name": "stdout",
     "output_type": "stream",
     "text": [
      "{'depression': 2, 'anxiety': 2}\n"
     ]
    }
   ],
   "source": [
    "import subprocess\n",
    "import sys\n",
    "import os\n",
    "# Must download DAM(depression anxiety modedl) locally via Hugging Face\n",
    "# https://huggingface.co/KintsugiHealth/dam\n",
    "sys.path.insert(0, \"/Users/lirunhe/Desktop/pandora/dam\")  # path to dam folder\n",
    "\n",
    "from pipeline import Pipeline\n",
    "\n",
    "MP4_FILE = \"/Users/lirunhe/Desktop/pandora/voice_files/voice_2025-02-24T22-08-21.094352.aac.mp4\"   # audio file path\n",
    "                                                                                                   # this file is only 18s\n",
    "# Convert to wav\n",
    "wav_file = MP4_FILE.replace(\".mp4\", \".wav\")                                                        # Model only accepts WAV files\n",
    "subprocess.run([\"ffmpeg\", \"-y\", \"-i\", MP4_FILE, \"-ar\", \"16000\", \"-ac\", \"1\", wav_file])\n",
    "\n",
    "# Run model\n",
    "pipeline = Pipeline()\n",
    "result = pipeline.run_on_file(wav_file, quantize=True)\n",
    "print(result)"
   ]
  }
 ],
 "metadata": {
  "kernelspec": {
   "display_name": "Kintsugi",
   "language": "python",
   "name": "dam"
  },
  "language_info": {
   "codemirror_mode": {
    "name": "ipython",
    "version": 3
   },
   "file_extension": ".py",
   "mimetype": "text/x-python",
   "name": "python",
   "nbconvert_exporter": "python",
   "pygments_lexer": "ipython3",
   "version": "3.12.13"
  }
 },
 "nbformat": 4,
 "nbformat_minor": 5
}
